<svg viewBox="0 0 960 600" role="img" aria-labelledby="marketingskills-repo-review-hero-title marketingskills-repo-review-hero-desc" xmlns="http://www.w3.org/2000/svg">
  <title id="marketingskills-repo-review-hero-title">One product context, four workflows</title>
  <desc id="marketingskills-repo-review-hero-desc">Four marketing workflows — copywriting, SEO, analytics, and growth — each depend on a single shared product-marketing context file that they read before acting.</desc>
  <defs>
    <marker id="marketingskills-repo-review-hero-arrow" markerWidth="8" markerHeight="6" refX="7" refY="3" orient="auto">
      <polygon points="0 0, 8 3, 0 6" fill="#374151"/>
    </marker>
    <marker id="marketingskills-repo-review-hero-arrow-accent" markerWidth="8" markerHeight="6" refX="7" refY="3" orient="auto">
      <polygon points="0 0, 8 3, 0 6" fill="#A5523D"/>
    </marker>
    <marker id="marketingskills-repo-review-hero-arrow-link" markerWidth="8" markerHeight="6" refX="7" refY="3" orient="auto">
      <polygon points="0 0, 8 3, 0 6" fill="#8A4433"/>
    </marker>
  </defs>
  <rect width="100%" height="100%" fill="#F5EFE6"/>

  <path d="M168 224 V248 Q168 256 176 256 H400 Q408 256 408 264 V400" fill="none" stroke="#374151" stroke-width="1" marker-end="url(#marketingskills-repo-review-hero-arrow)"/>
  <path d="M376 224 V232 Q376 240 384 240 H448 Q456 240 456 248 V400" fill="none" stroke="#374151" stroke-width="1" marker-end="url(#marketingskills-repo-review-hero-arrow)"/>
  <path d="M584 224 V232 Q584 240 576 240 H512 Q504 240 504 248 V400" fill="none" stroke="#374151" stroke-width="1" marker-end="url(#marketingskills-repo-review-hero-arrow)"/>
  <path d="M792 224 V248 Q792 256 784 256 H560 Q552 256 552 264 V400" fill="none" stroke="#374151" stroke-width="1" marker-end="url(#marketingskills-repo-review-hero-arrow)"/>

  <rect x="88" y="168" width="160" height="56" rx="6" fill="#F5EFE6"/>
  <rect x="88" y="168" width="160" height="56" rx="6" fill="#ffffff" stroke="#111827" stroke-width="1"/>
  <text x="168" y="200" fill="#111827" font-size="12" font-weight="600" font-family="'Figtree', sans-serif" text-anchor="middle">Copywriting</text>

  <rect x="296" y="168" width="160" height="56" rx="6" fill="#F5EFE6"/>
  <rect x="296" y="168" width="160" height="56" rx="6" fill="#ffffff" stroke="#111827" stroke-width="1"/>
  <text x="376" y="200" fill="#111827" font-size="12" font-weight="600" font-family="'Figtree', sans-serif" text-anchor="middle">SEO</text>

  <rect x="504" y="168" width="160" height="56" rx="6" fill="#F5EFE6"/>
  <rect x="504" y="168" width="160" height="56" rx="6" fill="#ffffff" stroke="#111827" stroke-width="1"/>
  <text x="584" y="200" fill="#111827" font-size="12" font-weight="600" font-family="'Figtree', sans-serif" text-anchor="middle">Analytics</text>

  <rect x="712" y="168" width="160" height="56" rx="6" fill="#F5EFE6"/>
  <rect x="712" y="168" width="160" height="56" rx="6" fill="#ffffff" stroke="#111827" stroke-width="1"/>
  <text x="792" y="200" fill="#111827" font-size="12" font-weight="600" font-family="'Figtree', sans-serif" text-anchor="middle">Growth</text>

  <rect x="360" y="400" width="240" height="80" rx="6" fill="#F5EFE6"/>
  <rect x="360" y="400" width="240" height="80" rx="6" fill="rgba(192,97,74,0.10)" stroke="#A5523D" stroke-width="1.2"/>
  <rect x="548" y="412" width="40" height="16" rx="4" fill="#F5EFE6" stroke="rgba(17,24,39,0.12)" stroke-width="0.8"/>
  <text x="568" y="424" fill="#6B7280" font-size="8" font-family="'Geist Mono', monospace" text-anchor="middle" letter-spacing="0.08em">4 IN</text>
  <text x="480" y="444" fill="#111827" font-size="12" font-weight="600" font-family="'Figtree', sans-serif" text-anchor="middle">.agents/product-marketing.md</text>
  <text x="480" y="460" fill="#374151" font-size="8" font-family="'Geist Mono', monospace" text-anchor="middle" letter-spacing="0.08em">SHARED CONTEXT</text>
</svg>
